<svg width="74" height="54" viewBox="0 0 74 54" fill="none" xmlns="http://www.w3.org/2000/svg">
<path d="M40.4375 36.4102C40.4375 33.5456 40.6979 30.4857 41.2188 27.2305C41.8047 23.9102 42.6836 20.6549 43.8555 17.4648C45.0924 14.2096 46.6549 11.1497 48.543 8.28516C50.4961 5.35547 52.8398 2.84896 55.5742 0.765625L66.2188 8.1875C64.3958 10.2708 63.0286 12.2565 62.1172 14.1445C61.2057 16.0326 60.4896 17.9206 59.9688 19.8086C61.9219 20.1341 63.7448 20.8177 65.4375 21.8594C67.1302 22.8359 68.5951 24.0729 69.832 25.5703C71.069 27.0026 72.0456 28.6628 72.7617 30.5508C73.4779 32.3737 73.8359 34.3268 73.8359 36.4102C73.8359 38.6888 73.3802 40.8372 72.4688 42.8555C71.6224 44.8086 70.418 46.5664 68.8555 48.1289C67.3581 49.6263 65.6003 50.8307 63.582 51.7422C61.5638 52.5885 59.4479 53.0117 57.2344 53.0117C54.8906 53.0117 52.6771 52.5885 50.5938 51.7422C48.5755 50.8307 46.7852 49.6263 45.2227 48.1289C43.7253 46.5664 42.5534 44.8086 41.707 42.8555C40.8607 40.8372 40.4375 38.6888 40.4375 36.4102ZM0.398438 36.4102C0.398438 33.5456 0.658854 30.4857 1.17969 27.2305C1.76562 23.9102 2.64453 20.6549 3.81641 17.4648C5.05339 14.2096 6.64844 11.1497 8.60156 8.28516C10.5547 5.35547 12.8984 2.84896 15.6328 0.765625L26.1797 8.1875C24.3568 10.2708 22.9896 12.2565 22.0781 14.1445C21.2318 16.0326 20.5482 17.9206 20.0273 19.8086C21.9805 20.1341 23.8034 20.8177 25.4961 21.8594C27.1888 22.8359 28.6211 24.0729 29.793 25.5703C31.0299 27.0026 32.0065 28.6628 32.7227 30.5508C33.4388 32.3737 33.7969 34.3268 33.7969 36.4102C33.7969 38.6888 33.3411 40.8372 32.4297 42.8555C31.5833 44.8086 30.3789 46.5664 28.8164 48.1289C27.319 49.6263 25.5612 50.8307 23.543 51.7422C21.5247 52.5885 19.4089 53.0117 17.1953 53.0117C14.8516 53.0117 12.638 52.5885 10.5547 51.7422C8.53646 50.8307 6.77865 49.6263 5.28125 48.1289C3.78385 46.5664 2.57943 44.8086 1.66797 42.8555C0.821615 40.8372 0.398438 38.6888 0.398438 36.4102Z" fill="white" fill-opacity="0.5"/>
</svg>
